<mxfile host="app.diagrams.net" agent="Mozilla/5.0 (X11; Linux x86_64; rv:109.0) Gecko/20100101 Firefox/115.0" version="24.7.13">
  <diagram name="Page-1" id="q7yBCG9XE9v0W4DzDG9n">
    <mxGraphModel dx="1434" dy="759" grid="1" gridSize="10" guides="1" tooltips="1" connect="1" arrows="1" fold="1" page="1" pageScale="1" pageWidth="850" pageHeight="1100" math="0" shadow="0">
      <root>
        <mxCell id="0" />
        <mxCell id="1" parent="0" />
        <mxCell id="ufBsXPS3xFedlbiG6Zfy-6" value="" style="rounded=0;whiteSpace=wrap;html=1;" vertex="1" parent="1">
          <mxGeometry x="330" y="80" width="210" height="370" as="geometry" />
        </mxCell>
        <mxCell id="ufBsXPS3xFedlbiG6Zfy-7" value=" Mister Ed" style="rounded=0;whiteSpace=wrap;html=1;" vertex="1" parent="1">
          <mxGeometry x="330" y="80" width="120" height="40" as="geometry" />
        </mxCell>
        <mxCell id="ufBsXPS3xFedlbiG6Zfy-8" value="Log-in" style="ellipse;whiteSpace=wrap;html=1;" vertex="1" parent="1">
          <mxGeometry x="375" y="180" width="120" height="50" as="geometry" />
        </mxCell>
        <mxCell id="ufBsXPS3xFedlbiG6Zfy-9" value="User&#39;s Database" style="ellipse;whiteSpace=wrap;html=1;" vertex="1" parent="1">
          <mxGeometry x="380" y="270" width="115" height="60" as="geometry" />
        </mxCell>
        <mxCell id="ufBsXPS3xFedlbiG6Zfy-11" value="" style="rounded=0;whiteSpace=wrap;html=1;" vertex="1" parent="1">
          <mxGeometry x="120" y="110" width="120" height="280" as="geometry" />
        </mxCell>
        <mxCell id="ufBsXPS3xFedlbiG6Zfy-10" value="" style="endArrow=classic;html=1;rounded=0;exitX=0.5;exitY=0.5;exitDx=0;exitDy=0;exitPerimeter=0;" edge="1" parent="1" source="ufBsXPS3xFedlbiG6Zfy-14" target="ufBsXPS3xFedlbiG6Zfy-8">
          <mxGeometry width="50" height="50" relative="1" as="geometry">
            <mxPoint x="170" y="150" as="sourcePoint" />
            <mxPoint x="220" y="100" as="targetPoint" />
          </mxGeometry>
        </mxCell>
        <mxCell id="ufBsXPS3xFedlbiG6Zfy-14" value="Patient" style="shape=umlActor;verticalLabelPosition=bottom;verticalAlign=top;html=1;outlineConnect=0;" vertex="1" parent="1">
          <mxGeometry x="165" y="162" width="30" height="60" as="geometry" />
        </mxCell>
        <mxCell id="ufBsXPS3xFedlbiG6Zfy-15" value="Primary Actors" style="rounded=0;whiteSpace=wrap;html=1;" vertex="1" parent="1">
          <mxGeometry x="120" y="110" width="90" height="30" as="geometry" />
        </mxCell>
      </root>
    </mxGraphModel>
  </diagram>
</mxfile>
